<svg width="80" height="32" viewBox="0 0 80 32" fill="none" xmlns="http://www.w3.org/2000/svg">
<path d="M31.4515 26.2353C30.8371 26.2353 30.2422 26.1242 29.667 25.902C29.0918 25.6666 28.582 25.3333 28.1375 24.9019C27.706 24.4704 27.3596 23.941 27.0981 23.3135C26.8367 22.6729 26.706 21.9473 26.706 21.1368C26.706 20.3262 26.8367 19.6072 27.0981 18.9797C27.3596 18.3391 27.706 17.8031 28.1375 17.3717C28.582 16.9403 29.0918 16.6135 29.667 16.3912C30.2422 16.1559 30.8371 16.0382 31.4515 16.0382C32.066 16.0382 32.6542 16.1559 33.2164 16.3912C33.7916 16.6135 34.2949 16.9403 34.7263 17.3717C35.1708 17.8031 35.5238 18.3391 35.7853 18.9797C36.0467 19.6072 36.1775 20.3262 36.1775 21.1368C36.1775 21.9473 36.0467 22.6729 35.7853 23.3135C35.5238 23.941 35.1708 24.4704 34.7263 24.9019C34.2949 25.3333 33.7916 25.6666 33.2164 25.902C32.6542 26.1242 32.066 26.2353 31.4515 26.2353ZM31.4515 23.9018C32.0398 23.9018 32.4843 23.6534 32.785 23.1566C33.0857 22.6598 33.236 21.9865 33.236 21.1368C33.236 20.287 33.0857 19.6138 32.785 19.117C32.4843 18.6202 32.0398 18.3718 31.4515 18.3718C30.8501 18.3718 30.3991 18.6202 30.0984 19.117C29.8108 19.6138 29.667 20.287 29.667 21.1368C29.667 21.9865 29.8108 22.6598 30.0984 23.1566C30.3991 23.6534 30.8501 23.9018 31.4515 23.9018ZM42.3288 26.2353C41.7144 26.2353 41.1195 26.1242 40.5443 25.902C39.9691 25.6666 39.4592 25.3333 39.0148 24.9019C38.5833 24.4704 38.2369 23.941 37.9754 23.3135C37.714 22.6729 37.5832 21.9473 37.5832 21.1368C37.5832 20.3262 37.714 19.6072 37.9754 18.9797C38.2369 18.3391 38.5833 17.8031 39.0148 17.3717C39.4592 16.9403 39.9691 16.6135 40.5443 16.3912C41.1195 16.1559 41.7144 16.0382 42.3288 16.0382C42.9432 16.0382 43.5315 16.1559 44.0937 16.3912C44.6689 16.6135 45.1722 16.9403 45.6036 17.3717C46.0481 17.8031 46.4011 18.3391 46.6626 18.9797C46.924 19.6072 47.0548 20.3262 47.0548 21.1368C47.0548 21.9473 46.924 22.6729 46.6626 23.3135C46.4011 23.941 46.0481 24.4704 45.6036 24.9019C45.1722 25.3333 44.6689 25.6666 44.0937 25.902C43.5315 26.1242 42.9432 26.2353 42.3288 26.2353ZM42.3288 23.9018C42.9171 23.9018 43.3616 23.6534 43.6623 23.1566C43.9629 22.6598 44.1133 21.9865 44.1133 21.1368C44.1133 20.287 43.9629 19.6138 43.6623 19.117C43.3616 18.6202 42.9171 18.3718 42.3288 18.3718C41.7274 18.3718 41.2764 18.6202 40.9757 19.117C40.6881 19.6138 40.5443 20.287 40.5443 21.1368C40.5443 21.9865 40.6881 22.6598 40.9757 23.1566C41.2764 23.6534 41.7274 23.9018 42.3288 23.9018ZM53.2061 26.2353C52.5916 26.2353 51.9968 26.1242 51.4216 25.902C50.8464 25.6666 50.3365 25.3333 49.892 24.9019C49.4606 24.4704 49.1142 23.941 48.8527 23.3135C48.5913 22.6729 48.4605 21.9473 48.4605 21.1368C48.4605 20.3262 48.5913 19.6072 48.8527 18.9797C49.1142 18.3391 49.4606 17.8031 49.892 17.3717C50.3365 16.9403 50.8464 16.6135 51.4216 16.3912C51.9968 16.1559 52.5916 16.0382 53.2061 16.0382C53.8205 16.0382 54.4088 16.1559 54.971 16.3912C55.5462 16.6135 56.0495 16.9403 56.4809 17.3717C56.9254 17.8031 57.2784 18.3391 57.5398 18.9797C57.8013 19.6072 57.932 20.3262 57.932 21.1368C57.932 21.9473 57.8013 22.6729 57.5398 23.3135C57.2784 23.941 56.9254 24.4704 56.4809 24.9019C56.0495 25.3333 55.5462 25.6666 54.971 25.902C54.4088 26.1242 53.8205 26.2353 53.2061 26.2353ZM53.2061 23.9018C53.7944 23.9018 54.2389 23.6534 54.5395 23.1566C54.8402 22.6598 54.9906 21.9865 54.9906 21.1368C54.9906 20.287 54.8402 19.6138 54.5395 19.117C54.2389 18.6202 53.7944 18.3718 53.2061 18.3718C52.6047 18.3718 52.1537 18.6202 51.853 19.117C51.5654 19.6138 51.4216 20.287 51.4216 21.1368C51.4216 21.9865 51.5654 22.6598 51.853 23.1566C52.1537 23.6534 52.6047 23.9018 53.2061 23.9018ZM59.9065 26V12.2536H62.7107V20.1367H62.7891L65.8679 16.2736H69.0054L65.5933 20.274L69.2603 26H66.1424L63.9461 22.2153L62.7107 23.6076V26H59.9065ZM71.7283 29.8043C71.4276 29.8043 71.1727 29.7847 70.9635 29.7455C70.7543 29.7193 70.5517 29.6736 70.3556 29.6082L70.8654 27.4119C70.9569 27.438 71.0615 27.4642 71.1792 27.4903C71.2969 27.5165 71.408 27.5296 71.5126 27.5296C71.9963 27.5296 72.3689 27.4119 72.6303 27.1766C72.8918 26.9413 73.0879 26.634 73.2186 26.2549L73.3559 25.7451L69.6104 16.2736H72.5127L73.9049 20.4504C74.0488 20.8949 74.1795 21.346 74.2971 21.8035C74.4148 22.2611 74.539 22.7317 74.6697 23.2154H74.7482C74.8528 22.7579 74.9573 22.3003 75.0619 21.8427C75.1796 21.3721 75.2972 20.908 75.4149 20.4504L76.5915 16.2736H79.3565L75.9836 26.098C75.7483 26.7125 75.4999 27.2485 75.2384 27.706C74.99 28.1767 74.6959 28.5623 74.356 28.863C74.0291 29.1768 73.65 29.4121 73.2186 29.569C72.8003 29.7259 72.3035 29.8043 71.7283 29.8043Z" fill="#3E2AD1"/>
<path d="M0.696 32V0.704H11.4C13.032 0.704 14.536 0.831999 15.912 1.088C17.32 1.312 18.536 1.728 19.56 2.336C20.616 2.944 21.432 3.744 22.008 4.736C22.616 5.728 22.92 6.976 22.92 8.48C22.92 9.184 22.824 9.888 22.632 10.592C22.44 11.296 22.168 11.952 21.816 12.56C21.464 13.168 21.032 13.712 20.52 14.192C20.04 14.672 19.48 15.024 18.84 15.248V15.44C19.64 15.632 20.376 15.936 21.048 16.352C21.72 16.736 22.312 17.232 22.824 17.84C23.336 18.448 23.736 19.168 24.024 20C24.312 20.8 24.456 21.728 24.456 22.784C24.456 24.384 24.136 25.76 23.496 26.912C22.888 28.064 22.024 29.024 20.904 29.792C19.816 30.528 18.536 31.088 17.064 31.472C15.592 31.824 14.008 32 12.312 32H0.696ZM7.752 13.232H11.064C12.792 13.232 14.04 12.896 14.808 12.224C15.608 11.552 16.008 10.656 16.008 9.536C16.008 8.32 15.608 7.456 14.808 6.944C14.008 6.432 12.776 6.176 11.112 6.176H7.752V13.232ZM7.752 26.528H11.736C15.608 26.528 17.544 25.12 17.544 22.304C17.544 20.928 17.064 19.952 16.104 19.376C15.144 18.768 13.688 18.464 11.736 18.464H7.752V26.528Z" fill="#3E2AD1"/>
</svg>
